M48
; DRILL file {KiCad 7.0.8} date Sat May  4 13:28:39 2024
; FORMAT={-:-/ absolute / metric / decimal}
; #@! TF.CreationDate,2024-05-04T13:28:39+09:00
; #@! TF.GenerationSoftware,Kicad,Pcbnew,7.0.8
; #@! TF.FileFunction,Plated,1,2,PTH
FMAT,2
METRIC
; #@! TA.AperFunction,Plated,PTH,ViaDrill
T1C0.400
; #@! TA.AperFunction,Plated,PTH,ComponentDrill
T2C0.600
; #@! TA.AperFunction,Plated,PTH,ComponentDrill
T3C0.800
; #@! TA.AperFunction,Plated,PTH,ComponentDrill
T4C1.000
%
G90
G05
T1
X109.96Y-113.33
X110.0Y-116.0
X110.0Y-137.0
X110.0Y-146.0
X112.21Y-71.49
X113.0Y-116.0
X113.0Y-137.0
X113.0Y-146.0
X114.18Y-119.45
X114.74Y-74.05
X115.15Y-98.35
X116.09Y-137.87
X116.3Y-90.83
X116.65Y-96.85
X116.65Y-98.35
X118.15Y-96.85
X118.15Y-98.35
X119.364Y-114.554
X119.65Y-98.35
X120.65Y-93.4
X121.05Y-136.95
X121.58Y-96.01
X125.32Y-96.31
X127.07Y-90.6
X127.8Y-87.35
X127.8Y-88.0
X128.0Y-140.0
X128.31Y-86.37
X128.72Y-153.27
X128.95Y-78.29
X129.44Y-151.0
X132.75Y-94.41
X132.76Y-91.93
X132.76Y-93.68
X132.77Y-92.77
X133.87Y-91.91
X133.87Y-92.81
X133.89Y-93.68
X133.89Y-94.4
X134.06Y-78.23
X134.26Y-86.6
X136.02Y-85.86
X137.0Y-138.82
X137.25Y-86.37
X138.05Y-96.45
X138.85Y-96.45
X139.2Y-89.65
X139.89Y-96.64
X140.25Y-139.95
X141.1Y-89.7
X141.95Y-96.45
X142.6Y-89.35
X143.95Y-89.75
X144.05Y-86.35
X145.11Y-73.5
X145.45Y-91.35
X145.75Y-94.85
X146.0Y-139.0
X146.0Y-143.0
X146.0Y-147.0
X146.02Y-76.73
X147.574Y-91.948
X148.22Y-70.34
X148.3Y-93.56
X149.12Y-73.5
X149.171Y-95.192
X150.0Y-139.0
X150.0Y-143.0
X150.0Y-147.0
X155.0Y-141.0
X155.05Y-84.3
X156.0Y-142.25
X156.0Y-142.95
X156.0Y-143.7
X156.0Y-144.35
X156.7Y-142.25
X156.7Y-142.95
X156.75Y-143.7
X156.75Y-144.35
X157.45Y-142.25
X157.45Y-142.95
X157.45Y-143.65
X157.5Y-144.35
X158.15Y-142.95
X158.15Y-143.65
X158.15Y-144.35
X158.16Y-142.23
X160.66Y-136.45
X162.49Y-73.49
X163.1Y-142.2
X163.1Y-142.9
X163.1Y-143.6
X163.1Y-144.4
X163.64Y-74.67
X163.8Y-142.2
X163.8Y-142.9
X163.8Y-143.6
X163.8Y-144.4
X164.5Y-142.2
X164.5Y-142.9
X164.5Y-143.6
X164.5Y-144.4
X165.0Y-147.0
X165.0Y-153.0
X165.2Y-142.2
X165.2Y-142.9
X165.2Y-143.6
X165.2Y-144.4
X165.66Y-76.62
X166.838Y-127.675
X167.225Y-130.85
X167.98Y-74.93
X168.35Y-82.56
X169.0Y-147.0
X169.0Y-153.0
X170.61Y-119.44
X170.73Y-141.95
T3
X141.124Y-81.54
X142.14Y-79.0
X143.156Y-81.54
X144.172Y-79.0
X145.188Y-81.54
X146.204Y-79.0
X147.22Y-81.54
X148.236Y-79.0
X160.024Y-81.54
X161.04Y-79.0
X162.01Y-119.38
X162.056Y-81.54
X163.072Y-79.0
X164.088Y-81.54
X165.104Y-79.0
X166.12Y-81.54
X167.01Y-119.38
X167.136Y-79.0
T4
X110.88Y-110.03
X113.42Y-110.03
X115.96Y-110.03
X116.52Y-100.08
X116.52Y-102.62
X117.343Y-117.856
X118.5Y-110.03
X119.06Y-100.08
X119.06Y-102.62
X119.883Y-117.856
X121.6Y-100.08
X121.6Y-102.62
X124.14Y-100.08
X124.14Y-102.62
X126.68Y-100.08
X126.68Y-102.62
X129.22Y-100.08
X129.22Y-102.62
X131.76Y-100.08
X131.76Y-102.62
X134.3Y-100.08
X134.3Y-102.62
X136.84Y-100.08
X136.84Y-102.62
X139.38Y-100.08
X139.38Y-102.62
X141.92Y-100.08
X141.92Y-102.62
X144.46Y-100.08
X144.46Y-102.62
X147.0Y-100.08
X147.0Y-102.62
X149.54Y-100.08
X149.54Y-102.62
X151.865Y-88.47
X152.08Y-100.08
X152.08Y-102.62
X154.0Y-109.0
X154.0Y-111.54
X154.405Y-88.47
X154.62Y-100.08
X154.62Y-102.62
X156.945Y-88.47
X157.16Y-100.08
X157.16Y-102.62
X159.7Y-100.08
X159.7Y-102.62
X162.24Y-100.08
X162.24Y-102.62
X164.78Y-100.08
X164.78Y-102.62
T2
G00X156.22Y-146.095
M15
G01X156.22Y-147.195
M16
G05
G00X156.22Y-150.525
M15
G01X156.22Y-151.125
M16
G05
G00X164.86Y-146.095
M15
G01X164.86Y-147.195
M16
G05
G00X164.86Y-150.525
M15
G01X164.86Y-151.125
M16
G05
T0
M30
