G04 #@! TF.GenerationSoftware,KiCad,Pcbnew,7.0.8*
G04 #@! TF.CreationDate,2024-05-04T13:28:34+09:00*
G04 #@! TF.ProjectId,mainboard,6d61696e-626f-4617-9264-2e6b69636164,rev?*
G04 #@! TF.SameCoordinates,Original*
G04 #@! TF.FileFunction,Soldermask,Top*
G04 #@! TF.FilePolarity,Negative*
%FSLAX46Y46*%
G04 Gerber Fmt 4.6, Leading zero omitted, Abs format (unit mm)*
G04 Created by KiCad (PCBNEW 7.0.8) date 2024-05-04 13:28:34*
%MOMM*%
%LPD*%
G01*
G04 APERTURE LIST*
G04 Aperture macros list*
%AMRoundRect*
0 Rectangle with rounded corners*
0 $1 Rounding radius*
0 $2 $3 $4 $5 $6 $7 $8 $9 X,Y pos of 4 corners*
0 Add a 4 corners polygon primitive as box body*
4,1,4,$2,$3,$4,$5,$6,$7,$8,$9,$2,$3,0*
0 Add four circle primitives for the rounded corners*
1,1,$1+$1,$2,$3*
1,1,$1+$1,$4,$5*
1,1,$1+$1,$6,$7*
1,1,$1+$1,$8,$9*
0 Add four rect primitives between the rounded corners*
20,1,$1+$1,$2,$3,$4,$5,0*
20,1,$1+$1,$4,$5,$6,$7,0*
20,1,$1+$1,$6,$7,$8,$9,0*
20,1,$1+$1,$8,$9,$2,$3,0*%
G04 Aperture macros list end*
%ADD10RoundRect,0.250000X0.450000X-0.350000X0.450000X0.350000X-0.450000X0.350000X-0.450000X-0.350000X0*%
%ADD11RoundRect,0.150000X-0.150000X0.512500X-0.150000X-0.512500X0.150000X-0.512500X0.150000X0.512500X0*%
%ADD12RoundRect,0.250000X-0.450000X0.350000X-0.450000X-0.350000X0.450000X-0.350000X0.450000X0.350000X0*%
%ADD13C,1.600000*%
%ADD14C,2.500000*%
%ADD15C,1.800000*%
%ADD16RoundRect,0.250000X-0.350000X-0.450000X0.350000X-0.450000X0.350000X0.450000X-0.350000X0.450000X0*%
%ADD17C,3.200000*%
%ADD18R,1.700000X1.700000*%
%ADD19O,1.700000X1.700000*%
%ADD20RoundRect,0.250000X0.350000X0.450000X-0.350000X0.450000X-0.350000X-0.450000X0.350000X-0.450000X0*%
%ADD21C,2.700000*%
%ADD22RoundRect,0.150000X-0.150000X0.587500X-0.150000X-0.587500X0.150000X-0.587500X0.150000X0.587500X0*%
%ADD23RoundRect,0.237500X0.237500X-0.287500X0.237500X0.287500X-0.237500X0.287500X-0.237500X-0.287500X0*%
%ADD24C,0.650000*%
%ADD25RoundRect,0.150000X-0.150000X-0.500000X0.150000X-0.500000X0.150000X0.500000X-0.150000X0.500000X0*%
%ADD26RoundRect,0.075000X-0.075000X-0.575000X0.075000X-0.575000X0.075000X0.575000X-0.075000X0.575000X0*%
%ADD27O,1.000000X2.100000*%
%ADD28O,1.000000X1.600000*%
%ADD29RoundRect,0.237500X0.300000X0.237500X-0.300000X0.237500X-0.300000X-0.237500X0.300000X-0.237500X0*%
%ADD30RoundRect,0.237500X0.237500X-0.300000X0.237500X0.300000X-0.237500X0.300000X-0.237500X-0.300000X0*%
%ADD31RoundRect,0.250000X-0.337500X-0.475000X0.337500X-0.475000X0.337500X0.475000X-0.337500X0.475000X0*%
%ADD32R,1.850000X0.900000*%
%ADD33R,1.850000X3.200000*%
%ADD34RoundRect,0.250000X-0.475000X0.337500X-0.475000X-0.337500X0.475000X-0.337500X0.475000X0.337500X0*%
%ADD35R,0.450000X1.750000*%
%ADD36RoundRect,0.250000X-0.475000X0.250000X-0.475000X-0.250000X0.475000X-0.250000X0.475000X0.250000X0*%
%ADD37RoundRect,0.250000X0.475000X-0.250000X0.475000X0.250000X-0.475000X0.250000X-0.475000X-0.250000X0*%
%ADD38RoundRect,0.237500X-0.300000X-0.237500X0.300000X-0.237500X0.300000X0.237500X-0.300000X0.237500X0*%
%ADD39R,2.000000X1.800000*%
G04 APERTURE END LIST*
D10*
X160050000Y-135250000D03*
X160050000Y-133250000D03*
D11*
X161450000Y-138262500D03*
X160500000Y-138262500D03*
X159550000Y-138262500D03*
X159550000Y-140537500D03*
X160500000Y-140537500D03*
X161450000Y-140537500D03*
D12*
X142000000Y-140100000D03*
X142000000Y-142100000D03*
D13*
X171705000Y-81540000D03*
D14*
X170980000Y-76700000D03*
X156180000Y-76700000D03*
D13*
X155455000Y-81540000D03*
D15*
X160024000Y-81540000D03*
X161040000Y-79000000D03*
X162056000Y-81540000D03*
X163072000Y-79000000D03*
X164088000Y-81540000D03*
X165104000Y-79000000D03*
X166120000Y-81540000D03*
X167136000Y-79000000D03*
D12*
X163750000Y-133200000D03*
X163750000Y-135200000D03*
D16*
X117364000Y-114554000D03*
X119364000Y-114554000D03*
D17*
X148600000Y-110200000D03*
D18*
X154000000Y-109000000D03*
D19*
X154000000Y-111540000D03*
D20*
X167150000Y-130775000D03*
X165150000Y-130775000D03*
D21*
X111650000Y-101350000D03*
D18*
X110880000Y-110030000D03*
D19*
X113420000Y-110030000D03*
X115960000Y-110030000D03*
X118500000Y-110030000D03*
D22*
X161790000Y-108545000D03*
X159890000Y-108545000D03*
X160840000Y-110420000D03*
D18*
X117343000Y-117856000D03*
D19*
X119883000Y-117856000D03*
D23*
X132000000Y-146875000D03*
X132000000Y-145125000D03*
D17*
X124574940Y-110176860D03*
D23*
X142000000Y-147025000D03*
X142000000Y-145275000D03*
D20*
X161710000Y-105970000D03*
X159710000Y-105970000D03*
D13*
X167010000Y-119380000D03*
X162010000Y-119380000D03*
D17*
X124600000Y-134150000D03*
D12*
X137000000Y-140000000D03*
X137000000Y-142000000D03*
D10*
X163900000Y-140400000D03*
X163900000Y-138400000D03*
D24*
X157650000Y-147145000D03*
X163430000Y-147145000D03*
D25*
X157340000Y-146005000D03*
X158140000Y-146005000D03*
D26*
X159290000Y-146005000D03*
X160290000Y-146005000D03*
X160790000Y-146005000D03*
X161790000Y-146005000D03*
D25*
X162940000Y-146005000D03*
X163740000Y-146005000D03*
X163740000Y-146005000D03*
X162940000Y-146005000D03*
D26*
X162290000Y-146005000D03*
X161290000Y-146005000D03*
X159790000Y-146005000D03*
X158790000Y-146005000D03*
D25*
X158140000Y-146005000D03*
X157340000Y-146005000D03*
D27*
X156220000Y-146645000D03*
D28*
X156220000Y-150825000D03*
D27*
X164860000Y-146645000D03*
D28*
X164860000Y-150825000D03*
D17*
X148550000Y-134200000D03*
D12*
X132000000Y-140000000D03*
X132000000Y-142000000D03*
D29*
X166837500Y-127675000D03*
X165112500Y-127675000D03*
D21*
X169650000Y-101350000D03*
D13*
X152805000Y-81540000D03*
D14*
X152080000Y-76700000D03*
X137280000Y-76700000D03*
D13*
X136555000Y-81540000D03*
D15*
X141124000Y-81540000D03*
X142140000Y-79000000D03*
X143156000Y-81540000D03*
X144172000Y-79000000D03*
X145188000Y-81540000D03*
X146204000Y-79000000D03*
X147220000Y-81540000D03*
X148236000Y-79000000D03*
D21*
X169650000Y-150350000D03*
D30*
X147574000Y-92048500D03*
X147574000Y-90323500D03*
D31*
X127892500Y-87670000D03*
X129967500Y-87670000D03*
D21*
X111650000Y-150350000D03*
D32*
X127070000Y-90600000D03*
X127070000Y-92900000D03*
X127070000Y-95200000D03*
D33*
X133270000Y-92900000D03*
D18*
X151865000Y-88470000D03*
D19*
X154405000Y-88470000D03*
X156945000Y-88470000D03*
D34*
X156800000Y-133262500D03*
X156800000Y-135337500D03*
D35*
X136750000Y-95150000D03*
X137400000Y-95150000D03*
X138050000Y-95150000D03*
X138700000Y-95150000D03*
X139350000Y-95150000D03*
X140000000Y-95150000D03*
X140650000Y-95150000D03*
X141300000Y-95150000D03*
X141950000Y-95150000D03*
X142600000Y-95150000D03*
X143250000Y-95150000D03*
X143900000Y-95150000D03*
X144550000Y-95150000D03*
X145200000Y-95150000D03*
X145200000Y-87950000D03*
X144550000Y-87950000D03*
X143900000Y-87950000D03*
X143250000Y-87950000D03*
X142600000Y-87950000D03*
X141950000Y-87950000D03*
X141300000Y-87950000D03*
X140650000Y-87950000D03*
X140000000Y-87950000D03*
X139350000Y-87950000D03*
X138700000Y-87950000D03*
X138050000Y-87950000D03*
X137400000Y-87950000D03*
X136750000Y-87950000D03*
D36*
X157150000Y-108900000D03*
X157150000Y-110800000D03*
D23*
X137000000Y-146875000D03*
X137000000Y-145125000D03*
D37*
X130980000Y-77080000D03*
X130980000Y-75180000D03*
D10*
X157200000Y-140400000D03*
X157200000Y-138400000D03*
D38*
X126217500Y-97400000D03*
X127942500Y-97400000D03*
D39*
X129138481Y-79830000D03*
X129138481Y-84910000D03*
X133338481Y-84910000D03*
X133338481Y-79830000D03*
D18*
X116520000Y-102620000D03*
D19*
X116520000Y-100080000D03*
X119060000Y-102620000D03*
X119060000Y-100080000D03*
X121600000Y-102620000D03*
X121600000Y-100080000D03*
X124140000Y-102620000D03*
X124140000Y-100080000D03*
X126680000Y-102620000D03*
X126680000Y-100080000D03*
X129220000Y-102620000D03*
X129220000Y-100080000D03*
X131760000Y-102620000D03*
X131760000Y-100080000D03*
X134300000Y-102620000D03*
X134300000Y-100080000D03*
X136840000Y-102620000D03*
X136840000Y-100080000D03*
X139380000Y-102620000D03*
X139380000Y-100080000D03*
X141920000Y-102620000D03*
X141920000Y-100080000D03*
X144460000Y-102620000D03*
X144460000Y-100080000D03*
X147000000Y-102620000D03*
X147000000Y-100080000D03*
X149540000Y-102620000D03*
X149540000Y-100080000D03*
X152080000Y-102620000D03*
X152080000Y-100080000D03*
X154620000Y-102620000D03*
X154620000Y-100080000D03*
X157160000Y-102620000D03*
X157160000Y-100080000D03*
X159700000Y-102620000D03*
X159700000Y-100080000D03*
X162240000Y-102620000D03*
X162240000Y-100080000D03*
X164780000Y-102620000D03*
X164780000Y-100080000D03*
M02*
