G04 #@! TF.GenerationSoftware,KiCad,Pcbnew,7.0.8*
G04 #@! TF.CreationDate,2024-05-04T13:28:34+09:00*
G04 #@! TF.ProjectId,mainboard,6d61696e-626f-4617-9264-2e6b69636164,rev?*
G04 #@! TF.SameCoordinates,Original*
G04 #@! TF.FileFunction,Profile,NP*
%FSLAX46Y46*%
G04 Gerber Fmt 4.6, Leading zero omitted, Abs format (unit mm)*
G04 Created by KiCad (PCBNEW 7.0.8) date 2024-05-04 13:28:34*
%MOMM*%
%LPD*%
G01*
G04 APERTURE LIST*
G04 #@! TA.AperFunction,Profile*
%ADD10C,0.100000*%
G04 #@! TD*
G04 #@! TA.AperFunction,Profile*
%ADD11C,0.050000*%
G04 #@! TD*
G04 APERTURE END LIST*
D10*
X108150000Y-134850000D02*
X108150000Y-150850000D01*
X113150000Y-117850000D02*
X113150000Y-133850000D01*
X170000000Y-153850000D02*
X111150000Y-153850000D01*
X152150000Y-149850000D02*
G75*
G03*
X154150000Y-149850000I1000000J0D01*
G01*
X154150000Y-134850000D02*
G75*
G03*
X152150000Y-134850000I-1000000J0D01*
G01*
X109160000Y-117350000D02*
X112650000Y-117350000D01*
X108160000Y-116350000D02*
G75*
G03*
X109160000Y-117350000I1000000J0D01*
G01*
D11*
X151074940Y-122476860D02*
G75*
G03*
X151074940Y-122476860I-14500000J0D01*
G01*
D10*
X113150000Y-117850000D02*
G75*
G03*
X112650000Y-117350000I-500000J0D01*
G01*
X108150000Y-150850000D02*
G75*
G03*
X111150000Y-153850000I3000000J0D01*
G01*
X173000000Y-71000000D02*
G75*
G03*
X172000000Y-70000000I-1000000J0D01*
G01*
X154150000Y-134850000D02*
X154150000Y-149850000D01*
X112650000Y-134350000D02*
G75*
G03*
X113150000Y-133850000I0J500000D01*
G01*
X111160000Y-70000000D02*
G75*
G03*
X108160000Y-73000000I0J-3000000D01*
G01*
X173000000Y-150850000D02*
X173000000Y-71000000D01*
X170000000Y-153850000D02*
G75*
G03*
X173000000Y-150850000I0J3000000D01*
G01*
X108160000Y-116350000D02*
X108160000Y-73000000D01*
X152150000Y-149850000D02*
X152150000Y-134850000D01*
X111160000Y-70000000D02*
X172000000Y-70000000D01*
X108649127Y-134350001D02*
G75*
G03*
X108150000Y-134850000I873J-499999D01*
G01*
X112650000Y-134350000D02*
X108650000Y-134350000D01*
M02*
